<svg width="200" height="200" viewBox="0 0 200 200" fill="none" xmlns="http://www.w3.org/2000/svg">
<path d="M69.4119 40.0005L60.2354 106H113.53L111.588 121.177H29.0001L39.0589 49.5299C39.4119 47.4122 39.7648 45.6475 40.1178 44.2358C40.5884 42.824 41.5295 41.7652 42.9413 41.0593C44.4707 40.3534 46.8237 40.0005 50.0001 40.0005H69.4119Z" fill="#E9E9E9"/>
<path d="M104.647 152.706H117.529C127.412 152.706 135.765 152.235 142.588 151.294C149.412 150.353 155 148.529 159.353 145.823C163.823 143 167.353 138.941 169.941 133.647C172.647 128.353 174.588 121.353 175.765 112.647C176.941 104.411 177.118 97.6467 176.294 92.3526C175.588 86.9409 173.765 82.7644 170.823 79.8232C167.882 76.7644 163.706 74.5879 158.294 73.2938C152.882 71.9997 146.118 71.2938 138 71.1761H126.353H114.706C110.823 71.1761 107.059 71.235 103.412 71.3526H93.5293C88.5881 71.4703 85.2352 72.5291 83.4705 74.5291C81.8234 76.5291 80.5881 79.8232 79.9999 84.4114C79.8038 84.882 79.7646 85.8232 80.7058 85.8232C81.647 85.8232 100.588 85.9409 109.941 85.9997C111.347 85.8716 112.412 85.8232 113.823 85.8232H118.588C120.235 85.7056 121.823 85.6467 123.353 85.6467H127.412C131.882 85.6467 135.588 85.9409 138.529 86.5291C141.47 86.9997 143.706 88.1173 145.235 89.882C146.765 91.6467 147.647 94.3526 147.882 97.9997C148.235 101.647 148 106.529 147.176 112.647C146.47 117.235 145.529 121.176 144.353 124.47C143.176 127.647 141.529 130.235 139.412 132.235C137.412 134.235 134.882 135.706 131.823 136.647C128.765 137.588 125.059 138.059 120.706 138.059H116.118H110.647C108.882 137.941 107.176 137.882 105.529 137.882H101.47L73.3528 138.059C73.1247 138.039 72.6183 138.353 72.4183 139.764C71.6446 145.229 70.9953 149.768 70.5881 152.529H80.647H92.294C96.294 152.647 100.412 152.706 104.647 152.706Z" fill="#E9E9E9"/>
<circle cx="100" cy="100" r="98.5" stroke="#E9E9E9" stroke-width="3"/>
</svg>
