<svg width="351" height="75" viewBox="0 0 351 75" fill="none" xmlns="http://www.w3.org/2000/svg">
<path d="M273.928 31.2561C274.557 26.9 275.163 22.5439 275.747 18.1878C276.376 13.8317 276.982 9.47561 277.566 5.1195C277.791 3.41298 278.24 2.178 278.913 1.41456C279.587 0.65112 280.844 0.2694 282.686 0.2694C285.021 0.2694 287.423 0.2694 289.893 0.2694C292.408 0.224491 294.901 0.224491 297.371 0.2694C299.841 0.2694 302.198 0.2694 304.444 0.2694C306.509 0.314307 308.306 0.65112 309.833 1.27984C311.36 1.86364 312.482 2.87408 313.201 4.31115C313.919 5.74822 314.121 7.70173 313.807 10.1717C313.223 14.2134 311.854 17.0876 309.698 18.7941C307.587 20.4557 304.96 21.264 301.817 21.2191C299.167 21.1742 296.405 21.1518 293.531 21.1518C290.657 21.1518 287.895 21.1518 285.245 21.1518C285.47 19.4902 285.627 18.2776 285.717 17.5142C285.852 16.7058 286.031 16.1894 286.256 15.9649C286.48 15.6954 286.907 15.5607 287.536 15.5607C288.434 15.5607 289.467 15.5607 290.634 15.5607C291.847 15.5607 293.082 15.5607 294.339 15.5607C295.597 15.5607 296.787 15.5607 297.91 15.5607C298.673 15.5607 299.369 15.4035 299.998 15.0891C300.671 14.7299 301.233 14.1685 301.682 13.4051C302.131 12.6416 302.423 11.6537 302.558 10.4411C302.782 9.00407 302.692 7.94872 302.288 7.2751C301.884 6.55657 301.098 6.15239 299.93 6.06257C298.718 6.01766 297.528 5.99521 296.36 5.99521C295.237 5.99521 294.115 5.99521 292.992 5.99521C291.869 5.99521 290.814 6.01766 289.826 6.06257C289.557 6.06257 289.242 6.17484 288.883 6.39939C288.569 6.62393 288.389 6.91583 288.344 7.2751C287.76 11.2719 287.176 15.2688 286.593 19.2656C286.054 23.2176 285.515 27.2144 284.976 31.2561H273.928Z" fill="#E9E9E9"/>
<path d="M265.877 15.8975C265.562 18.0082 265.203 19.8943 264.799 21.556C264.395 23.2176 263.788 24.6771 262.98 25.9345C262.172 27.147 261.049 28.1575 259.612 28.9658C258.175 29.7742 256.289 30.3804 253.953 30.7846C251.618 31.1888 248.654 31.3909 245.062 31.3909C241.469 31.3909 238.527 31.1888 236.237 30.7846C233.992 30.3804 232.263 29.7742 231.05 28.9658C229.883 28.1575 229.097 27.1695 228.692 26.0019C228.333 24.8343 228.198 23.4646 228.288 21.8928C228.378 20.321 228.558 18.5696 228.827 16.6385L230.444 5.25423C230.668 3.86207 230.871 2.80673 231.05 2.0882C231.23 1.36966 231.612 0.898125 232.195 0.673583C232.824 0.404134 233.834 0.269409 235.227 0.269409H242.232L239.605 18.7941C239.381 20.6802 239.426 22.0949 239.74 23.0379C240.099 23.981 240.795 24.6097 241.828 24.9241C242.906 25.1935 244.298 25.3283 246.005 25.3283C248.744 25.3283 250.72 24.8567 251.933 23.9136C253.19 22.9706 253.998 21.2865 254.358 18.8615L256.985 0.269409H263.788C265.27 0.269409 266.281 0.404134 266.82 0.673583C267.359 0.898125 267.628 1.36966 267.628 2.0882C267.628 2.80673 267.538 3.86207 267.359 5.25423L265.877 15.8975Z" fill="#E9E9E9"/>
<path d="M200.139 20.8151C200.139 20.8151 199.69 20.8151 198.792 20.8151C197.939 20.8151 196.838 20.8375 195.491 20.8824C194.144 20.8824 192.774 20.8824 191.382 20.8824L189.9 31.2562H178.853L182.625 4.37861C182.805 3.07627 183.209 2.06583 183.837 1.3473C184.511 0.628767 185.746 0.269501 187.542 0.269501C188.216 0.269501 189.226 0.269501 190.574 0.269501C191.966 0.224592 193.515 0.202138 195.222 0.202138C196.973 0.202138 198.792 0.202138 200.678 0.202138C202.564 0.15723 204.361 0.15723 206.067 0.202138C207.774 0.202138 209.278 0.224592 210.58 0.269501C211.883 0.269501 212.803 0.291956 213.342 0.336863C215.722 0.561405 217.429 1.30239 218.462 2.55982C219.495 3.77235 219.832 5.77077 219.472 8.55509C219.068 11.07 218.597 12.9112 218.058 14.0788C217.519 15.2015 216.8 16.0772 215.902 16.7059C215.543 16.9305 215.071 17.1101 214.487 17.2448C213.904 17.3796 213.297 17.4469 212.669 17.4469L212.601 17.7164C212.916 17.7164 213.252 17.7164 213.612 17.7164C214.016 17.7164 214.353 17.7388 214.622 17.7837C215.745 18.0083 216.508 18.39 216.912 18.9289C217.362 19.4229 217.609 20.0292 217.653 20.7477C217.698 21.4213 217.653 22.1174 217.519 22.8359L216.71 28.7638C216.576 29.6171 216.576 30.2458 216.71 30.65C216.845 31.0093 216.935 31.2113 216.98 31.2562H208.694C207.572 31.2562 206.696 31.0766 206.067 30.7174C205.483 30.3581 205.259 29.5946 205.393 28.427L206.067 23.9811C206.292 22.5889 206.112 21.7132 205.528 21.354C204.944 20.9947 203.889 20.8151 202.362 20.8151H200.139ZM192.123 15.5608C192.572 15.5608 193.291 15.5832 194.279 15.6281C195.312 15.6281 196.412 15.6281 197.579 15.6281C198.792 15.6281 199.915 15.6281 200.948 15.6281C201.98 15.6281 202.721 15.6281 203.171 15.6281C204.248 15.6281 205.236 15.2913 206.134 14.6177C207.078 13.8992 207.661 12.5744 207.886 10.6433C208.11 9.29607 208.043 8.24073 207.684 7.47729C207.325 6.71385 206.628 6.28722 205.596 6.1974C204.967 6.06267 204.114 5.99531 203.036 5.99531C202.003 5.99531 200.903 5.99531 199.735 5.99531C198.612 5.99531 197.579 6.01777 196.636 6.06267C195.693 6.06267 194.997 6.06267 194.548 6.06267C194.458 6.06267 194.234 6.13004 193.875 6.26476C193.56 6.39949 193.358 6.7363 193.268 7.2752L192.123 15.5608Z" fill="#E9E9E9"/>
<path d="M149.459 31.3235C147.798 31.3235 146.159 31.3235 144.542 31.3235C142.925 31.3235 141.353 31.301 139.827 31.2561C138.3 31.2561 136.818 31.2561 135.381 31.2561C133.989 31.2561 132.709 31.2561 131.541 31.2561L135.179 5.25421C135.403 3.50279 135.83 2.24536 136.458 1.48191C137.132 0.718472 138.412 0.314297 140.298 0.26939C141.466 0.26939 142.723 0.26939 144.07 0.26939C145.463 0.22448 146.9 0.202026 148.382 0.202026C149.864 0.202026 151.346 0.202026 152.828 0.202026C154.354 0.202026 155.836 0.202026 157.273 0.202026C160.372 0.246935 162.954 0.516385 165.02 1.01038C167.086 1.50437 168.68 2.33517 169.803 3.50279C170.926 4.6255 171.622 6.21974 171.891 8.28553C172.206 10.3064 172.138 12.8886 171.689 16.0322C171.24 19.3554 170.499 22.0275 169.466 24.0483C168.478 26.0692 167.131 27.6186 165.424 28.6964C163.763 29.7293 161.63 30.4253 159.025 30.7846C156.42 31.1439 153.232 31.3235 149.459 31.3235ZM150.672 25.7324C152.334 25.7324 153.748 25.5528 154.916 25.1935C156.083 24.8342 157.049 24.2729 157.812 23.5094C158.621 22.746 159.249 21.758 159.699 20.5455C160.148 19.2881 160.507 17.7836 160.776 16.0322C161.091 13.697 161.181 11.8333 161.046 10.4411C160.956 9.04897 160.619 8.01608 160.035 7.34245C159.452 6.66883 158.598 6.2422 157.476 6.06256C156.353 5.83802 154.938 5.72575 153.232 5.72575C152.783 5.72575 152.266 5.72575 151.682 5.72575C151.099 5.72575 150.492 5.74821 149.864 5.79311C149.235 5.79311 148.629 5.79311 148.045 5.79311C147.506 5.79311 147.012 5.81557 146.563 5.86048C146.428 6.08502 146.293 6.37692 146.159 6.73619C146.024 7.05055 145.912 7.49963 145.822 8.08344L143.329 25.6651C143.734 25.6651 144.25 25.6651 144.879 25.6651C145.508 25.6651 146.159 25.6875 146.832 25.7324C147.551 25.7324 148.247 25.7324 148.921 25.7324C149.594 25.7324 150.178 25.7324 150.672 25.7324Z" fill="#E9E9E9"/>
<path d="M82.9137 31.2562L86.686 4.04171C86.8657 3.00882 87.0677 2.22292 87.2923 1.68402C87.5168 1.14512 87.8986 0.785854 88.4375 0.606222C89.0213 0.38168 89.897 0.269409 91.0646 0.269409H101.506L113.429 20.074L113.564 21.6233L116.528 0.269409H124.678C124.589 0.359225 124.476 0.651129 124.342 1.14512C124.252 1.59421 124.162 2.11065 124.072 2.69446C124.027 3.23336 123.96 3.72735 123.87 4.17643L120.569 27.9554C120.345 29.4374 119.896 30.358 119.222 30.7173C118.548 31.0765 117.381 31.2562 115.719 31.2562H106.221L93.9612 11.0474L93.8938 9.36334L90.7951 31.2562H82.9137Z" fill="#E9E9E9"/>
<path d="M34.8527 31.2562L49.2009 5.52372C50.1889 3.7723 51.4239 2.42505 52.9059 1.48197C54.3878 0.493991 56.5884 0 59.5074 0C61.8426 0 63.6839 0.449082 65.0311 1.34725C66.3784 2.24541 67.299 3.63757 67.793 5.52372L74.9334 31.2562H63.0102L61.0567 24.3179H47.0453L43.273 31.2562H34.8527ZM49.3357 20.074H59.5748L57.2844 10.6433C57.2395 10.284 57.1273 9.96965 56.9476 9.7002C56.8129 9.38584 56.521 9.22866 56.0719 9.22866C55.5779 9.22866 55.2187 9.38584 54.9941 9.7002C54.7696 9.96965 54.5675 10.284 54.3878 10.6433L49.3357 20.074Z" fill="#E9E9E9"/>
<path d="M15.426 0.269409L11.9232 25.463H32.2666L31.5256 31.2562H0L3.83966 3.90698C3.97439 3.09863 4.10911 2.42501 4.24384 1.88611C4.42347 1.34721 4.78274 0.943034 5.32164 0.673583C5.90545 0.404134 6.80361 0.269409 8.01614 0.269409H15.426Z" fill="#E9E9E9"/>
<path d="M312.339 67.2502C313.417 67.7442 314.809 68.1259 316.515 68.3954C318.267 68.6199 320.063 68.7547 321.904 68.7996C323.79 68.8445 325.452 68.8669 326.889 68.8669C327.428 68.8669 328.102 68.8669 328.91 68.8669C329.763 68.8669 330.459 68.8445 330.998 68.7996C332.211 68.7996 333.244 68.6873 334.097 68.4628C334.995 68.1933 335.691 67.7891 336.185 67.2502C336.724 66.7113 337.061 65.9479 337.196 64.9599C337.33 64.1965 337.263 63.6127 336.993 63.2085C336.769 62.7594 336.365 62.4675 335.781 62.3328C335.197 62.1531 334.434 62.0633 333.491 62.0633C332.997 62.0633 332.413 62.0633 331.739 62.0633C331.11 62.0633 330.302 62.0633 329.314 62.0633C328.326 62.0633 327.069 62.0633 325.542 62.0633C324.06 62.0633 322.6 61.996 321.163 61.8612C319.726 61.7265 318.446 61.4122 317.324 60.9182C316.246 60.3793 315.437 59.5485 314.899 58.4257C314.36 57.2581 314.247 55.6639 314.562 53.643C314.876 51.218 315.527 49.3318 316.515 47.9846C317.548 46.5924 318.873 45.5595 320.49 44.8859C322.106 44.2123 323.97 43.7856 326.081 43.606C328.191 43.4264 330.527 43.3365 333.086 43.3365C334.613 43.3365 336.252 43.359 338.004 43.4039C339.755 43.4488 341.395 43.5162 342.921 43.606C344.493 43.6958 345.683 43.853 346.492 44.0775C348.018 44.1674 349.119 44.5715 349.792 45.2901C350.511 46.0086 350.803 46.9068 350.668 47.9846C350.668 48.1642 350.623 48.4786 350.533 48.9276C350.488 49.3318 350.444 49.736 350.399 50.1402C350.354 50.5443 350.309 50.7689 350.264 50.8138C349.994 50.4994 349.388 50.2524 348.445 50.0728C347.547 49.8483 346.447 49.6911 345.144 49.6013C343.887 49.5114 342.629 49.4441 341.372 49.3992C340.16 49.3543 339.104 49.3318 338.206 49.3318H332.076C330.819 49.3318 329.763 49.4441 328.91 49.6686C328.102 49.8483 327.45 50.1851 326.956 50.6791C326.507 51.1731 326.215 51.8691 326.081 52.7673C325.991 53.4858 326.036 54.0696 326.215 54.5187C326.395 54.9229 326.777 55.2148 327.361 55.3944C327.944 55.5741 328.708 55.6639 329.651 55.6639C332.39 55.6639 334.568 55.6639 336.185 55.6639C337.847 55.6639 338.925 55.6639 339.419 55.6639C341.574 55.6639 343.438 55.8435 345.01 56.2028C346.581 56.562 347.727 57.3704 348.445 58.6278C349.209 59.8853 349.388 61.8163 348.984 64.421C348.625 66.891 347.839 68.8669 346.626 70.3489C345.459 71.786 343.977 72.8413 342.18 73.5149C340.384 74.1886 338.318 74.5927 335.983 74.7275C333.783 74.8622 331.717 74.9296 329.786 74.9296C327.9 74.9296 325.856 74.9296 323.656 74.9296C321.904 74.8846 320.288 74.7948 318.806 74.6601C317.324 74.5703 316.044 74.3907 314.966 74.1212C313.888 73.8068 313.08 73.4027 312.541 72.9087C312.002 72.3698 311.777 71.6737 311.867 70.8204L312.339 67.2502Z" fill="#E9E9E9"/>
<path d="M263.914 74.5927L267.686 47.3783C267.866 46.3454 268.068 45.5595 268.292 45.0206C268.517 44.4817 268.898 44.1224 269.437 43.9428C270.021 43.7182 270.897 43.606 272.064 43.606H282.506L294.429 63.4105L294.564 64.9599L297.527 43.606H305.678C305.589 43.6958 305.476 43.9877 305.342 44.4817C305.252 44.9308 305.162 45.4472 305.072 46.031C305.027 46.5699 304.96 47.0639 304.87 47.513L301.569 71.2919C301.345 72.7739 300.896 73.6945 300.222 74.0538C299.548 74.4131 298.381 74.5927 296.719 74.5927H287.221L274.961 54.384L274.894 52.6999L271.795 74.5927H263.914Z" fill="#E9E9E9"/>
<path d="M215.853 74.5927L230.201 48.8603C231.189 47.1088 232.424 45.7616 233.906 44.8185C235.388 43.8305 237.588 43.3365 240.507 43.3365C242.842 43.3365 244.684 43.7856 246.031 44.6838C247.378 45.582 248.299 46.9741 248.793 48.8603L255.933 74.5927H244.01L242.057 67.6544H228.045L224.273 74.5927H215.853ZM230.336 63.4106H240.575L238.284 53.9798C238.239 53.6206 238.127 53.3062 237.947 53.0367C237.813 52.7224 237.521 52.5652 237.072 52.5652C236.578 52.5652 236.218 52.7224 235.994 53.0367C235.769 53.3062 235.567 53.6206 235.388 53.9798L230.336 63.4106Z" fill="#E9E9E9"/>
<path d="M190.366 74.6602C188.705 74.6602 187.066 74.6602 185.449 74.6602C183.832 74.6602 182.26 74.6377 180.734 74.5928C179.207 74.5928 177.725 74.5928 176.288 74.5928C174.895 74.5928 173.616 74.5928 172.448 74.5928L176.086 48.5909C176.31 46.8395 176.737 45.582 177.365 44.8186C178.039 44.0551 179.319 43.651 181.205 43.6061C182.373 43.6061 183.63 43.6061 184.977 43.6061C186.37 43.5612 187.807 43.5387 189.289 43.5387C190.771 43.5387 192.253 43.5387 193.735 43.5387C195.261 43.5387 196.743 43.5387 198.18 43.5387C201.279 43.5836 203.861 43.8531 205.927 44.347C207.993 44.841 209.587 45.6718 210.71 46.8395C211.833 47.9622 212.529 49.5564 212.798 51.6222C213.112 53.6431 213.045 56.2253 212.596 59.3689C212.147 62.6921 211.406 65.3641 210.373 67.385C209.385 69.4059 208.038 70.9552 206.331 72.033C204.67 73.0659 202.537 73.762 199.932 74.1213C197.327 74.4805 194.139 74.6602 190.366 74.6602ZM191.579 69.0691C193.241 69.0691 194.655 68.8894 195.823 68.5302C196.99 68.1709 197.956 67.6096 198.719 66.8461C199.528 66.0827 200.156 65.0947 200.605 63.8822C201.055 62.6247 201.414 61.1203 201.683 59.3689C201.998 57.0336 202.087 55.17 201.953 53.7778C201.863 52.3856 201.526 51.3527 200.942 50.6791C200.358 50.0055 199.505 49.5789 198.383 49.3992C197.26 49.1747 195.845 49.0624 194.139 49.0624C193.69 49.0624 193.173 49.0624 192.589 49.0624C192.006 49.0624 191.399 49.0849 190.771 49.1298C190.142 49.1298 189.536 49.1298 188.952 49.1298C188.413 49.1298 187.919 49.1522 187.47 49.1971C187.335 49.4217 187.2 49.7136 187.066 50.0729C186.931 50.3872 186.819 50.8363 186.729 51.4201L184.236 69.0017C184.641 69.0017 185.157 69.0017 185.786 69.0017C186.414 69.0017 187.066 69.0242 187.739 69.0691C188.458 69.0691 189.154 69.0691 189.827 69.0691C190.501 69.0691 191.085 69.0691 191.579 69.0691Z" fill="#E9E9E9"/>
</svg>
